<svg width="22" height="22" viewBox="0 0 22 22" fill="none" xmlns="http://www.w3.org/2000/svg">
<path d="M19.297 17.941C9.93947 22.4506 4.13206 18.6776 0.41456 16.3859C0.184523 16.2415 -0.206461 16.4197 0.132771 16.8142C1.37126 18.3349 5.43004 22 10.7279 22C16.0295 22 19.1834 19.0708 19.5779 18.5598C19.9698 18.0531 19.6931 17.7736 19.297 17.941ZM21.9251 16.4714C21.6738 16.14 20.3971 16.0782 19.5936 16.1782C18.7888 16.2753 17.5809 16.7733 17.686 17.0723C17.7398 17.1843 17.8498 17.1341 18.4027 17.0837C18.957 17.0277 20.5099 16.8293 20.8335 17.2576C21.1586 17.6889 20.3382 19.7435 20.1884 20.0748C20.0436 20.4062 20.2437 20.4916 20.5156 20.2709C20.7838 20.0503 21.2693 19.479 21.5951 18.6705C21.9187 17.8576 22.1161 16.7237 21.9251 16.4714Z" fill="#FF9900"/>
<path fill-rule="evenodd" clip-rule="evenodd" d="M12.6759 9.42134C12.6759 10.571 12.7056 11.5297 12.1119 12.5506C11.6327 13.3808 10.8737 13.8913 10.0256 13.8913C8.86787 13.8913 8.19363 13.028 8.19363 11.7538C8.19363 9.23867 10.4962 8.78218 12.6759 8.78218V9.42134ZM15.7164 16.6139C15.517 16.7882 15.2287 16.8007 15.004 16.6844C14.0032 15.871 13.8251 15.4933 13.2738 14.7172C11.62 16.3691 10.4496 16.8629 8.30394 16.8629C5.76808 16.8629 3.79195 15.3314 3.79195 12.2643C3.79195 9.86961 5.11932 8.23847 7.00624 7.44166C8.64315 6.73601 10.9288 6.61152 12.6759 6.41652V6.03465C12.6759 5.33321 12.731 4.50316 12.3112 3.89724C11.9423 3.35353 11.2384 3.12939 10.6192 3.12939C9.47005 3.12939 8.44382 3.70626 8.19363 4.90156C8.14268 5.16725 7.94344 5.42874 7.67207 5.44116L4.74605 5.13409C4.50015 5.08003 4.22878 4.88503 4.29662 4.51558C4.97085 1.04596 8.17236 0 11.0389 0C12.5062 0 14.4229 0.381868 15.5806 1.4693C17.0479 2.80981 16.9079 4.5986 16.9079 6.54512V11.1437C16.9079 12.5258 17.4931 13.1317 18.0443 13.8788C18.2394 14.1444 18.2818 14.4641 18.0358 14.6632C17.4209 15.1654 16.3269 16.0993 15.7248 16.6222L15.7164 16.6139Z" fill="white"/>
</svg>
