<svg width="14" height="14" viewBox="0 0 14 14" fill="none" xmlns="http://www.w3.org/2000/svg">
<path d="M12.2799 11.417C6.32512 14.2867 2.62949 11.8857 0.263811 10.4274C0.117424 10.3355 -0.131384 10.4489 0.0844906 10.7C0.872618 11.6676 3.45548 14 6.82686 14C10.2006 14 12.2076 12.1359 12.4587 11.8108C12.7081 11.4884 12.532 11.3105 12.2799 11.417ZM13.9523 10.4818C13.7924 10.2709 12.9799 10.2316 12.4686 10.2952C11.9565 10.357 11.1879 10.6739 11.2547 10.8642C11.289 10.9355 11.359 10.9035 11.7108 10.8715C12.0635 10.8358 13.0518 10.7095 13.2577 10.9821C13.4645 11.2566 12.9425 12.564 12.8471 12.7749C12.755 12.9857 12.8823 13.0401 13.0554 12.8997C13.226 12.7593 13.535 12.3957 13.7423 11.8813C13.9482 11.364 14.0739 10.6423 13.9523 10.4818Z" fill="#0F0A05"/>
<path fill-rule="evenodd" clip-rule="evenodd" d="M8.06651 5.9954C8.06651 6.72698 8.08539 7.33709 7.70759 7.98677C7.40264 8.51504 6.91961 8.83989 6.37992 8.83989C5.64319 8.83989 5.21413 8.29052 5.21413 7.47972C5.21413 5.87916 6.6794 5.58866 8.06651 5.58866V5.9954ZM10.0013 10.5725C9.87448 10.6834 9.69098 10.6914 9.54798 10.6174C8.91114 10.0997 8.79777 9.8594 8.44699 9.36548C7.39457 10.4167 6.64976 10.7309 5.28432 10.7309C3.6706 10.7309 2.41306 9.75636 2.41306 7.80456C2.41306 6.28066 3.25775 5.24266 4.45852 4.7356C5.50019 4.28655 6.9547 4.20733 8.06651 4.08324V3.84023C8.06651 3.39386 8.10155 2.86565 7.83443 2.48006C7.59962 2.13406 7.15168 1.99143 6.75767 1.99143C6.0264 1.99143 5.37334 2.35853 5.21413 3.11917C5.18171 3.28825 5.05492 3.45465 4.88223 3.46256L3.02021 3.26715C2.86373 3.23274 2.69104 3.10865 2.73421 2.87355C3.16327 0.665611 5.20059 0 7.02478 0C7.95849 0 9.1782 0.243007 9.91492 0.935006C10.8486 1.78806 10.7596 2.92638 10.7596 4.16508V7.09146C10.7596 7.97096 11.132 8.35655 11.4827 8.83198C11.6069 9.001 11.6339 9.20443 11.4773 9.33113C11.0861 9.65069 10.3898 10.245 10.0067 10.5778L10.0013 10.5725Z" fill="#0F0A05"/>
</svg>
