<svg width="38" height="38" viewBox="0 0 38 38" fill="none" xmlns="http://www.w3.org/2000/svg">
<path d="M33.3312 30.989C17.1682 38.7783 7.1372 32.2612 0.716059 28.303C0.318721 28.0535 -0.356615 28.3613 0.229332 29.0428C2.36853 31.6693 9.37915 38 18.5301 38C27.6872 38 33.1349 32.9404 33.8164 32.0578C34.4933 31.1827 34.0153 30.6999 33.3312 30.989ZM37.8706 28.4505C37.4365 27.8782 35.2313 27.7715 33.8434 27.9442C32.4535 28.1118 30.3671 28.972 30.5485 29.4885C30.6416 29.682 30.8315 29.5952 31.7864 29.5083C32.7439 29.4115 35.4262 29.0688 35.9851 29.8086C36.5466 30.5536 35.1296 34.1024 34.8708 34.6747C34.6208 35.247 34.9663 35.3946 35.436 35.0134C35.8993 34.6324 36.7379 33.6456 37.3006 32.2491C37.8595 30.845 38.2005 28.8863 37.8706 28.4505Z" fill="#FF9900"/>
<path fill-rule="evenodd" clip-rule="evenodd" d="M21.8948 16.2732C21.8948 18.2589 21.9461 19.9149 20.9206 21.6784C20.0929 23.1123 18.7818 23.994 17.3169 23.994C15.3172 23.994 14.1526 22.5028 14.1526 20.3021C14.1526 15.9577 18.1298 15.1692 21.8948 15.1692V16.2732ZM27.1465 28.6968C26.8022 28.9978 26.3041 29.0194 25.916 28.8186C24.1874 27.4136 23.8797 26.7612 22.9275 25.4206C20.071 28.2738 18.0494 29.1269 14.3432 29.1269C9.96305 29.1269 6.54974 26.4815 6.54974 21.1838C6.54974 17.0475 8.84247 14.2301 12.1017 12.8538C14.9291 11.6349 18.877 11.4199 21.8948 11.0831V10.4235C21.8948 9.2119 21.9899 7.77818 21.2649 6.7316C20.6276 5.79246 19.4117 5.40532 18.3422 5.40532C16.3574 5.40532 14.5848 6.40173 14.1526 8.46633C14.0646 8.92525 13.7205 9.37691 13.2518 9.39837L8.19772 8.86798C7.77299 8.77459 7.30426 8.43777 7.42144 7.79964C8.58602 1.80666 14.1159 0 19.0673 0C21.6016 0 24.9123 0.65959 26.9119 2.53787C29.4463 4.85332 29.2045 7.94304 29.2045 11.3052V19.2483C29.2045 21.6355 30.2153 22.6821 31.1675 23.9725C31.5043 24.4313 31.5777 24.9834 31.1528 25.3274C30.0907 26.1947 28.201 27.8078 27.161 28.7111L27.1465 28.6968Z" fill="white"/>
</svg>
