<svg width="464" height="206" viewBox="0 0 464 206" fill="none" xmlns="http://www.w3.org/2000/svg">
<path d="M0.0844579 147.107V38.3068H25.5618V147.107H0.0844579Z" fill="#8558E3"/>
<path d="M73.2741 83.357V147.107H47.7968V38.3068H72.1481V56.7944H73.4149C75.9016 50.7027 79.8663 45.8624 85.309 42.2735C90.7986 38.6846 97.5785 36.8901 105.649 36.8901C113.109 36.8901 119.607 38.4957 125.144 41.7068C130.727 44.9179 135.044 49.5693 138.094 55.661C141.19 61.7527 142.715 69.143 142.668 77.8319V147.107H117.191V81.7986C117.191 74.5264 115.314 68.8361 111.561 64.7277C107.854 60.6194 102.716 58.5652 96.1474 58.5652C91.6901 58.5652 87.7254 59.5569 84.2533 61.5402C80.8282 63.4763 78.1303 66.2861 76.1597 69.9694C74.236 73.6528 73.2741 78.1153 73.2741 83.357Z" fill="#8558E3"/>
<path d="M171.783 12.24H197.26V114.382C197.26 117.829 197.776 120.474 198.809 122.315C199.888 124.11 201.295 125.338 203.031 125.999C204.767 126.66 206.691 126.99 208.802 126.99C210.398 126.99 211.852 126.872 213.166 126.636C214.527 126.4 215.559 126.188 216.263 125.999L220.556 146.045C219.195 146.517 217.248 147.036 214.714 147.603C212.228 148.17 209.178 148.5 205.565 148.595C199.184 148.784 193.436 147.816 188.322 145.691C183.208 143.518 179.149 140.165 176.146 135.632C173.19 131.099 171.736 125.432 171.783 118.632V12.24Z" fill="#8558E3"/>
<path d="M363.636 147.107V38.3068H388.34V56.4402H389.466C391.436 50.1596 394.814 45.3193 399.6 41.9193C404.433 38.4721 409.946 36.7485 416.139 36.7485C417.547 36.7485 419.119 36.8193 420.855 36.9609C422.638 37.0554 424.116 37.2207 425.289 37.4568V61.0444C424.21 60.6666 422.497 60.336 420.151 60.0527C417.852 59.7221 415.623 59.5569 413.465 59.5569C408.82 59.5569 404.644 60.5721 400.937 62.6027C397.278 64.586 394.392 67.3486 392.281 70.8902C390.169 74.4319 389.114 78.5167 389.114 83.1445V147.107H363.636Z" fill="#8558E3"/>
<path d="M438.251 147.107V38.3068H463.729V147.107H438.251Z" fill="#8558E3"/>
<path d="M25.3929 12.7784C25.3929 19.8357 19.7085 25.5568 12.6964 25.5568C5.68439 25.5568 0 19.8357 0 12.7784C0 5.72108 5.68439 0 12.6964 0C19.7085 0 25.3929 5.72108 25.3929 12.7784Z" fill="#8558E3"/>
<path d="M463.885 12.7784C463.885 19.8357 458.2 25.5568 451.188 25.5568C444.176 25.5568 438.492 19.8357 438.492 12.7784C438.492 5.72108 444.176 0 451.188 0C458.2 0 463.885 5.72108 463.885 12.7784Z" fill="#8558E3"/>
<path d="M156.073 38.6468H218.627V57.9702H156.073V38.6468Z" fill="#8558E3"/>
<path d="M231.95 90.8527C232.238 76.0872 238.251 62.0244 248.697 51.6848C259.144 41.3452 273.191 35.5535 287.821 35.5535C302.451 35.5535 316.498 41.3452 326.945 51.6848C337.391 62.0244 343.404 76.0872 343.692 90.8527C343.692 121.57 318.521 146.279 287.551 146.279C280.288 146.348 273.084 144.967 266.352 142.214C259.621 139.462 253.495 135.393 248.328 130.242C243.16 125.09 239.053 118.958 236.242 112.198C233.431 105.438 231.973 98.184 231.95 90.8527ZM316.768 90.6779C316.874 86.7734 316.204 82.8871 314.796 79.2485C313.389 75.61 311.274 72.293 308.576 69.4936C305.877 66.6941 302.65 64.469 299.085 62.9496C295.521 61.4302 291.691 60.6474 287.821 60.6474C283.952 60.6474 280.121 61.4302 276.557 62.9496C272.992 64.469 269.765 66.6941 267.067 69.4936C264.368 72.293 262.253 75.61 260.846 79.2485C259.439 82.8871 258.768 86.7734 258.874 90.6779C258.768 94.5825 259.439 98.4688 260.846 102.107C262.253 105.746 264.368 109.063 267.067 111.862C269.765 114.662 272.992 116.887 276.557 118.406C280.121 119.926 283.952 120.708 287.821 120.708C291.691 120.708 295.521 119.926 299.085 118.406C302.65 116.887 305.877 114.662 308.576 111.862C311.274 109.063 313.389 105.746 314.796 102.107C316.204 98.4688 316.874 94.5825 316.768 90.6779ZM256.363 190.803C254.329 192.114 252.619 192.005 251.364 190.301L240.867 175.554C239.633 173.85 240.434 171.796 243.313 169.961C261.119 158.543 282.449 154.1 303.278 157.468C324.107 160.837 342.994 171.786 356.375 188.247C358.539 190.913 358.539 193.119 356.959 194.343L342.35 205.004C340.64 206.249 338.974 205.79 337.459 203.912C327.866 192.098 314.317 184.241 299.375 181.825C284.433 179.41 269.131 182.604 256.363 190.803Z" fill="#8558E3"/>
</svg>
