<svg width="26" height="35" viewBox="0 0 26 35" fill="none" xmlns="http://www.w3.org/2000/svg">
<path d="M0 11.3753C0.0593488 8.33793 1.29883 5.44517 3.45225 3.31828C5.60566 1.19138 8.50124 0 11.5171 0C14.533 0 17.4285 1.19138 19.5819 3.31828C21.7354 5.44517 22.9748 8.33793 23.0342 11.3753C23.0342 17.6939 17.8456 22.7766 11.4613 22.7766C9.96429 22.7909 8.47921 22.5067 7.0916 21.9406C5.70399 21.3744 4.44124 20.5374 3.376 19.4778C2.31077 18.4181 1.46409 17.1567 0.884698 15.7661C0.305305 14.3756 0.00463942 12.8833 0 11.3753ZM17.4842 11.3393C17.506 10.5361 17.3678 9.7367 17.0777 8.98824C16.7877 8.23978 16.3516 7.55746 15.7954 6.98161C15.2391 6.40575 14.5739 5.94803 13.8391 5.63549C13.1043 5.32294 12.3147 5.16192 11.5171 5.16192C10.7195 5.16192 9.92991 5.32294 9.19509 5.63549C8.46027 5.94803 7.79509 6.40575 7.23883 6.98161C6.68258 7.55746 6.24653 8.23978 5.95646 8.98824C5.66639 9.7367 5.52818 10.5361 5.54999 11.3393C5.52818 12.1425 5.66639 12.9419 5.95646 13.6904C6.24653 14.4388 6.68258 15.1212 7.23883 15.697C7.79509 16.2729 8.46027 16.7306 9.19509 17.0431C9.92991 17.3557 10.7195 17.5167 11.5171 17.5167C12.3147 17.5167 13.1043 17.3557 13.8391 17.0431C14.5739 16.7306 15.2391 16.2729 15.7954 15.697C16.3516 15.1212 16.7877 14.4388 17.0777 13.6904C17.3678 12.9419 17.506 12.1425 17.4842 11.3393ZM5.03246 31.9355C4.61309 32.2051 4.26064 32.1827 4.00187 31.8321L1.83809 28.7987C1.58379 28.4481 1.74887 28.0257 2.34223 27.6482C6.01269 25.2995 10.4097 24.3854 14.7033 25.0784C18.997 25.7713 22.8903 28.0235 25.6486 31.4097C26.0947 31.958 26.0947 32.4119 25.769 32.6635L22.7576 34.8566C22.4051 35.1128 22.0616 35.0184 21.7493 34.6319C19.7718 32.2018 16.979 30.5855 13.8988 30.0887C10.8186 29.5919 7.66443 30.2489 5.03246 31.9355Z" fill="#FF3B00"/>
</svg>
