<svg fill="none" height="36" viewBox="0 0 26 36" width="26" xmlns="http://www.w3.org/2000/svg"><path d="m0 11.8753c.0593488-3.03737 1.29883-5.93013 3.45225-8.05702 2.15341-2.1269 5.04899-3.31828 8.06485-3.31828 3.0159 0 5.9114 1.19138 8.0648 3.31828 2.1535 2.12689 3.3929 5.01965 3.4523 8.05702 0 6.3186-5.1886 11.4013-11.5729 11.4013-1.49701.0143-2.98209-.2699-4.3697-.836-1.38761-.5662-2.65036-1.4032-3.7156-2.4628-1.06523-1.0597-1.91191-2.3211-2.491302-3.7117-.579393-1.3905-.88005858-2.8828-.884698-4.3908zm17.4842-.036c.0218-.8032-.1164-1.6026-.4065-2.35106-.29-.74846-.7261-1.43078-1.2823-2.00663-.5563-.57586-1.2215-1.03358-1.9563-1.34612-.7348-.31255-1.5244-.47358-2.322-.47358s-1.58719.16103-2.32201.47358c-.73482.31254-1.4.77026-1.95626 1.34612-.55625.57585-.9923 1.25817-1.28237 2.00663s-.42828 1.54786-.40647 2.35106c-.02181.8032.1164 1.6026.40647 2.3511.29007.7484.72612 1.4308 1.28237 2.0066.55626.5759 1.22144 1.0336 1.95626 1.3461.73482.3126 1.52441.4736 2.32201.4736s1.5872-.161 2.322-.4736c.7348-.3125 1.4-.7702 1.9563-1.3461.5562-.5758.9923-1.2582 1.2823-2.0066.2901-.7485.4283-1.5479.4065-2.3511zm-12.45174 20.5962c-.41937.2696-.77182.2472-1.03059-.1034l-2.16378-3.0334c-.2543-.3506-.08922-.773.50414-1.1505 3.67046-2.3487 8.06747-3.2628 12.36107-2.5698 4.2937.6929 8.187 2.9451 10.9453 6.3313.4461.5483.4461 1.0022.1204 1.2538l-3.0114 2.1931c-.3525.2562-.696.1618-1.0083-.2247-1.9775-2.4301-4.7703-4.0464-7.8505-4.5432s-6.23437.1602-8.86634 1.8468z" fill="#9664fa"/></svg>