<svg width="24" height="24" viewBox="0 0 24 24" fill="none" xmlns="http://www.w3.org/2000/svg">
<path d="M19.9444 10.4283C20.0333 10.6037 20.1306 10.7714 20.2344 10.9451L20.3037 11.0605C20.5048 11.3946 20.7382 11.7825 20.9164 12.2487C21.1219 12.7864 21.25 13.4102 21.25 14.2205C21.25 14.2421 21.2491 14.2638 21.2472 14.2853C21.1745 15.1232 20.9256 15.8584 20.452 16.471C19.9804 17.0809 19.3291 17.5137 18.5437 17.8213C17.0092 18.4223 14.817 18.5976 12 18.5976C9.18431 18.5976 6.99217 18.4251 5.45762 17.8257C4.67201 17.5188 4.02031 17.0862 3.54845 16.4754C3.07461 15.862 2.82571 15.1254 2.75281 14.2854C2.75094 14.2638 2.75 14.2422 2.75 14.2205C2.75 13.4102 2.87812 12.7864 3.08361 12.2487C3.26179 11.7825 3.49524 11.3946 3.69634 11.0604L3.76558 10.9451C3.986 10.5762 4.17732 10.2343 4.32088 9.78929C4.464 9.34572 4.56885 8.7689 4.56885 7.94511C4.56885 4.73407 7.5566 1.25 12 1.25C12.6245 1.25 13.2203 1.31883 13.783 1.44604C13.3609 1.83334 12.9993 2.28573 12.7144 2.7873C12.4826 2.76277 12.2444 2.75 12 2.75C8.35295 2.75 6.06885 5.59421 6.06885 7.94511C6.06885 8.90147 5.94634 9.63642 5.74842 10.2499C5.55096 10.8619 5.28756 11.3223 5.05327 11.7144L4.98522 11.828C4.77776 12.174 4.61303 12.4486 4.48478 12.7842C4.35156 13.1328 4.25342 13.5648 4.25009 14.1876C4.30676 14.7884 4.47738 15.2243 4.73548 15.5584C5.00011 15.9009 5.40043 16.1929 6.00342 16.4285C7.24608 16.9139 9.17746 17.0976 12 17.0976C14.8223 17.0976 16.7541 16.9113 17.9967 16.4246C18.6 16.1884 19.0006 15.8959 19.2652 15.5535C19.5233 15.2197 19.6935 14.7852 19.7499 14.1876C19.7466 13.5648 19.6484 13.1328 19.5152 12.7842C19.387 12.4486 19.2222 12.174 19.0148 11.828L18.9467 11.7144C18.8047 11.4767 18.652 11.2139 18.5098 10.9075C19.0157 10.8136 19.4973 10.6505 19.9444 10.4283Z" fill="white"/>
<path d="M10.0773 20.3559C9.80049 20.0478 9.32629 20.0225 9.01819 20.2993C8.71008 20.5762 8.68474 21.0504 8.96159 21.3585C10.6397 23.226 13.287 23.2014 14.9461 21.3591C15.2233 21.0513 15.1985 20.5771 14.8907 20.2999C14.5829 20.0227 14.1087 20.0475 13.8315 20.3553C12.7623 21.5425 11.1536 21.5538 10.0773 20.3559Z" fill="white"/>
<path d="M23 3.5C23 5.433 21.433 7 19.5 7C17.567 7 16 5.433 16 3.5C16 1.567 17.567 0 19.5 0C21.433 0 23 1.567 23 3.5Z" fill="#9664FA"/>
</svg>
