<svg width="24" height="24" viewBox="0 0 24 24" fill="none" xmlns="http://www.w3.org/2000/svg">
<path fill-rule="evenodd" clip-rule="evenodd" d="M20.5281 7.62679L19.9057 6.5467C19.3791 5.63278 18.2121 5.31749 17.297 5.84189C16.8613 6.09852 16.3415 6.17133 15.8521 6.04426C15.3628 5.91719 14.944 5.60069 14.6883 5.16455C14.5237 4.88732 14.4353 4.57157 14.432 4.24921C14.4468 3.7324 14.2518 3.23158 13.8915 2.86084C13.5311 2.49011 13.036 2.28104 12.5189 2.28125H11.2649C10.7584 2.28124 10.2727 2.48309 9.91544 2.84212C9.55812 3.20115 9.35861 3.68777 9.36105 4.19429C9.34603 5.2401 8.49392 6.07998 7.448 6.07988C7.12565 6.07653 6.80989 5.98812 6.53267 5.82358C5.6175 5.29919 4.45055 5.61447 3.92397 6.52839L3.25578 7.62679C2.72985 8.53957 3.04084 9.70578 3.95143 10.2355C4.54334 10.5772 4.90797 11.2088 4.90797 11.8922C4.90797 12.5757 4.54334 13.2073 3.95143 13.549C3.04199 14.0751 2.73066 15.2385 3.25578 16.1485L3.88736 17.2378C4.13408 17.683 4.54804 18.0115 5.03763 18.1506C5.52722 18.2898 6.05208 18.2281 6.49606 17.9792C6.93252 17.7245 7.45262 17.6547 7.94078 17.7854C8.42893 17.916 8.84467 18.2362 9.0956 18.6748C9.26013 18.9521 9.34854 19.2678 9.35189 19.5902C9.35189 20.6467 10.2084 21.5032 11.2649 21.5032H12.5189C13.5719 21.5032 14.4269 20.6523 14.432 19.5993C14.4295 19.0912 14.6303 18.6032 14.9896 18.2439C15.3489 17.8846 15.8369 17.6838 16.345 17.6863C16.6666 17.6949 16.9811 17.7829 17.2604 17.9426C18.1731 18.4685 19.3394 18.1575 19.8691 17.2469L20.5281 16.1485C20.7832 15.7107 20.8532 15.1892 20.7226 14.6995C20.5921 14.2099 20.2717 13.7925 19.8324 13.5398C19.3932 13.2871 19.0728 12.8698 18.9422 12.3801C18.8117 11.8905 18.8817 11.369 19.1368 10.9311C19.3027 10.6415 19.5428 10.4014 19.8324 10.2355C20.7376 9.70607 21.0478 8.54667 20.5281 7.63594V7.62679Z" stroke="#BDB5AB" stroke-width="1.5" stroke-linecap="round" stroke-linejoin="round"/>
<path d="M14.5327 11.8922C14.5327 13.3481 13.3524 14.5284 11.8965 14.5284C10.4406 14.5284 9.26036 13.3481 9.26036 11.8922C9.26036 10.4363 10.4406 9.25608 11.8965 9.25608C13.3524 9.25608 14.5327 10.4363 14.5327 11.8922Z" stroke="#BDB5AB" stroke-width="1.5" stroke-linecap="round" stroke-linejoin="round"/>
</svg>
